<?xml version="1.0" encoding="utf-8"?>
<!-- Generator: Adobe Illustrator 27.9.1, SVG Export Plug-In . SVG Version: 6.00 Build 0)  -->
<svg version="1.1" id="Layer_1" xmlns="http://www.w3.org/2000/svg" xmlns:xlink="http://www.w3.org/1999/xlink" x="0px" y="0px"
	 viewBox="0 0 1920 1080" style="enable-background:new 0 0 1920 1080;" xml:space="preserve">
<style type="text/css">
	.st0{fill:none;stroke:#000000;stroke-miterlimit:10;}
	.st1{fill-rule:evenodd;clip-rule:evenodd;fill:#F79420;}
	.st2{fill-rule:evenodd;clip-rule:evenodd;fill:#FAED23;stroke:#000000;stroke-miterlimit:10;}
	.st3{fill-rule:evenodd;clip-rule:evenodd;fill:#F15A26;stroke:#000000;stroke-miterlimit:10;}
	.st4{fill:#B9E3EB;stroke:#000000;stroke-miterlimit:10;}
	.st5{fill-rule:evenodd;clip-rule:evenodd;stroke:#000000;stroke-miterlimit:10;}
	.st6{fill:#EFCBCB;stroke:#000000;stroke-miterlimit:10;}
	.st7{fill:none;stroke:#000000;stroke-width:8;stroke-miterlimit:10;}
	.st8{fill:none;stroke:#C1272D;stroke-width:25;stroke-miterlimit:10;}
	.st9{fill-rule:evenodd;clip-rule:evenodd;fill:#191919;stroke:#000000;stroke-miterlimit:10;}
</style>
<g>
	<path class="st0" d="M821.5,661.5V104c-115.94-8.15-212.61,79.25-219,180.5c-6.92,109.78,93.64,214.58,220,206"/>
	<path class="st1" d="M821.5,661.5V104c-115.94-8.15-212.61,79.25-219,180.5c-6.92,109.78,93.64,214.58,220,206"/>
</g>
<path class="st0" d="M821.5,156.27"/>
<rect x="792.5" y="176.5" class="st2" width="29" height="222"/>
<rect x="792.5" y="398.5" class="st3" width="29" height="263"/>
<path class="st4" d="M821.5,176.5c164.36-11.21,246.31,67.77,259.5,222H822L821.5,176.5z"/>
<ellipse class="st5" cx="943" cy="282.5" rx="24.5" ry="25"/>
<path class="st6" d="M822,398.5h259c-8.75,182.14-103.84,259.38-259.5,263L822,398.5z"/>
<line class="st7" x1="821.5" y1="552.5" x2="637.5" y2="552.5"/>
<line class="st8" x1="821.5" y1="597.5" x2="672.5" y2="597.5"/>
<polygon class="st2" points="808.5,721.08 686,795.62 686,948.09 808.5,948.09 "/>
<polygon class="st9" points="808.5,721.08 808.5,948.09 951.25,948.09 951.25,909.92 879.88,909.92 879.88,876.04 967.5,876.04 
	967.5,834.58 866.87,834.58 866.87,783.5 943,783.5 "/>
</svg>
